<svg width="148" height="22" viewBox="0 0 148 22" fill="none" xmlns="http://www.w3.org/2000/svg">
<path d="M0 5.32095L2.85971 2L17.1813 2.08072C22.0331 2.56674 23.3307 7.96199 20.5599 11.0519C23.7872 14.4983 21.3901 20 17.2389 20H13.5259L14.9212 16.7367H17.1813C19.2684 16.1602 19.1185 13.2659 17.1813 12.7008H9.06342L10.4471 9.39142H17.1813C19.107 8.99936 19.303 5.90903 17.1813 5.32095H0Z" fill="#3596FF"/>
<path d="M5.30418 7.55786H8.77503L4.88906 16.8288H12.4188L11.0582 19.9999H0.0229492L5.30418 7.55786Z" fill="white"/>
<path d="M35.5625 17V5.57812H36.8906V15.8125H41.9609V17H35.5625ZM44.7834 8.4375V17H43.4866V8.4375H44.7834ZM44.1506 5.23438C44.3642 5.23438 44.5465 5.30469 44.6975 5.44531C44.8538 5.58073 44.9319 5.79427 44.9319 6.08594C44.9319 6.3724 44.8538 6.58594 44.6975 6.72656C44.5465 6.86719 44.3642 6.9375 44.1506 6.9375C43.9267 6.9375 43.7392 6.86719 43.5881 6.72656C43.4423 6.58594 43.3694 6.3724 43.3694 6.08594C43.3694 5.79427 43.4423 5.58073 43.5881 5.44531C43.7392 5.30469 43.9267 5.23438 44.1506 5.23438ZM51.3481 8.28125C52.3638 8.28125 53.132 8.53125 53.6528 9.03125C54.1736 9.52604 54.4341 10.3229 54.4341 11.4219V17H53.1528V11.5078C53.1528 10.7943 52.9888 10.2604 52.6606 9.90625C52.3377 9.55208 51.8403 9.375 51.1684 9.375C50.2205 9.375 49.5539 9.64323 49.1684 10.1797C48.783 10.7161 48.5903 11.4948 48.5903 12.5156V17H47.2934V8.4375H48.3403L48.5356 9.67188H48.6059C48.7882 9.36979 49.02 9.11719 49.3013 8.91406C49.5825 8.70573 49.8976 8.54948 50.2466 8.44531C50.5955 8.33594 50.9627 8.28125 51.3481 8.28125ZM60.1628 8.28125C60.892 8.28125 61.517 8.44271 62.0378 8.76562C62.5586 9.08854 62.9571 9.54167 63.2331 10.125C63.5092 10.7031 63.6472 11.3802 63.6472 12.1562V12.9609H57.7331C57.7488 13.9661 57.9988 14.7318 58.4831 15.2578C58.9675 15.7839 59.6498 16.0469 60.53 16.0469C61.0717 16.0469 61.5508 15.9974 61.9675 15.8984C62.3842 15.7995 62.8165 15.6536 63.2644 15.4609V16.6016C62.8321 16.7943 62.4024 16.9349 61.9753 17.0234C61.5534 17.112 61.0534 17.1562 60.4753 17.1562C59.6524 17.1562 58.9336 16.9896 58.3191 16.6562C57.7097 16.3177 57.2357 15.8229 56.8972 15.1719C56.5586 14.5208 56.3894 13.724 56.3894 12.7812C56.3894 11.8594 56.543 11.0625 56.8503 10.3906C57.1628 9.71354 57.6003 9.19271 58.1628 8.82812C58.7305 8.46354 59.3972 8.28125 60.1628 8.28125ZM60.1472 9.34375C59.4545 9.34375 58.9024 9.57031 58.4909 10.0234C58.0795 10.4766 57.8347 11.1094 57.7566 11.9219H62.2878C62.2826 11.4115 62.2019 10.9635 62.0456 10.5781C61.8946 10.1875 61.6628 9.88542 61.3503 9.67188C61.0378 9.45312 60.6368 9.34375 60.1472 9.34375ZM72.6806 8.4375V17H71.6181L71.4306 15.7969H71.3603C71.1832 16.0938 70.9541 16.3438 70.6728 16.5469C70.3916 16.75 70.0739 16.901 69.7197 17C69.3707 17.1042 68.9983 17.1562 68.6025 17.1562C67.9254 17.1562 67.3577 17.0469 66.8994 16.8281C66.441 16.6094 66.0947 16.2708 65.8603 15.8125C65.6311 15.3542 65.5166 14.7656 65.5166 14.0469V8.4375H66.8291V13.9531C66.8291 14.6667 66.9905 15.2005 67.3134 15.5547C67.6364 15.9036 68.1285 16.0781 68.79 16.0781C69.4254 16.0781 69.9306 15.9583 70.3056 15.7188C70.6858 15.4792 70.9593 15.1276 71.1259 14.6641C71.2926 14.1953 71.3759 13.6224 71.3759 12.9453V8.4375H72.6806ZM79.2062 8.28125C80.274 8.28125 81.1255 8.64844 81.7609 9.38281C82.3964 10.1172 82.7141 11.2214 82.7141 12.6953C82.7141 13.6693 82.5682 14.487 82.2766 15.1484C81.9849 15.8099 81.5734 16.3099 81.0422 16.6484C80.5161 16.987 79.8937 17.1562 79.175 17.1562C78.7219 17.1562 78.3234 17.0964 77.9797 16.9766C77.6359 16.8568 77.3417 16.6953 77.0969 16.4922C76.8521 16.2891 76.649 16.0677 76.4875 15.8281H76.3937C76.4094 16.0312 76.4276 16.276 76.4484 16.5625C76.4745 16.849 76.4875 17.099 76.4875 17.3125V20.8281H75.1828V8.4375H76.2531L76.425 9.70312H76.4875C76.6542 9.44271 76.8573 9.20573 77.0969 8.99219C77.3365 8.77344 77.6281 8.60156 77.9719 8.47656C78.3208 8.34635 78.7323 8.28125 79.2062 8.28125ZM78.9797 9.375C78.3859 9.375 77.9068 9.48958 77.5422 9.71875C77.1828 9.94792 76.9198 10.2917 76.7531 10.75C76.5865 11.2031 76.4979 11.7734 76.4875 12.4609V12.7109C76.4875 13.4349 76.5656 14.0469 76.7219 14.5469C76.8833 15.0469 77.1464 15.4271 77.5109 15.6875C77.8807 15.9479 78.3755 16.0781 78.9953 16.0781C79.5266 16.0781 79.9693 15.9349 80.3234 15.6484C80.6776 15.362 80.9406 14.9635 81.1125 14.4531C81.2896 13.9375 81.3781 13.3464 81.3781 12.6797C81.3781 11.6693 81.1802 10.8672 80.7844 10.2734C80.3937 9.67448 79.7922 9.375 78.9797 9.375Z" fill="white"/>
<path d="M99.7553 5.57812L96.9428 17H93.2944L92.2006 12.0234C92.1798 11.9297 92.1459 11.7708 92.0991 11.5469C92.0574 11.3229 92.0079 11.0677 91.9506 10.7812C91.8985 10.4948 91.8491 10.2135 91.8022 9.9375C91.7605 9.65625 91.7293 9.41927 91.7084 9.22656C91.6876 9.41927 91.6538 9.65625 91.6069 9.9375C91.56 10.2135 91.5079 10.4948 91.4506 10.7812C91.3985 11.0677 91.3465 11.3229 91.2944 11.5469C91.2475 11.7708 91.2136 11.9297 91.1928 12.0234L90.0913 17H86.4428L83.6147 5.57812H86.5913L87.8334 11.3047C87.8647 11.4453 87.9064 11.6458 87.9584 11.9062C88.0157 12.1615 88.073 12.4427 88.1303 12.75C88.1928 13.0521 88.2501 13.3438 88.3022 13.625C88.3543 13.9062 88.3907 14.1406 88.4116 14.3281C88.4532 14.0052 88.5079 13.638 88.5756 13.2266C88.6485 12.8151 88.7267 12.3984 88.81 11.9766C88.8985 11.5495 88.9819 11.1536 89.06 10.7891C89.1381 10.4245 89.2058 10.1276 89.2631 9.89844L90.2709 5.57812H93.1303L94.1069 9.89844C94.159 10.1224 94.2241 10.4193 94.3022 10.7891C94.3855 11.1536 94.4689 11.5495 94.5522 11.9766C94.6407 12.4036 94.7215 12.8255 94.7944 13.2422C94.8673 13.6536 94.922 14.0156 94.9584 14.3281C94.9897 14.0677 95.0418 13.7396 95.1147 13.3438C95.1876 12.9427 95.2605 12.5547 95.3334 12.1797C95.4116 11.7995 95.4715 11.513 95.5131 11.3203L96.7788 5.57812H99.7553ZM103.882 8.14844V17H100.828V8.14844H103.882ZM102.367 4.58594C102.804 4.58594 103.185 4.67708 103.507 4.85938C103.836 5.04167 104 5.40365 104 5.94531C104 6.47135 103.836 6.82812 103.507 7.01562C103.185 7.19792 102.804 7.28906 102.367 7.28906C101.919 7.28906 101.536 7.19792 101.218 7.01562C100.906 6.82812 100.75 6.47135 100.75 5.94531C100.75 5.40365 100.906 5.04167 101.218 4.85938C101.536 4.67708 101.919 4.58594 102.367 4.58594ZM112.432 17H105.103V15.2578L108.768 10.4844H105.314V8.14844H112.26V10.0391L108.752 14.6641H112.432V17ZM117.965 7.99219C119.085 7.99219 119.96 8.27083 120.59 8.82812C121.22 9.38021 121.535 10.1693 121.535 11.1953V17H119.418L118.832 15.8281H118.77C118.52 16.1406 118.262 16.3958 117.996 16.5938C117.736 16.7865 117.436 16.9271 117.098 17.0156C116.759 17.1094 116.345 17.1562 115.856 17.1562C115.345 17.1562 114.887 17.0521 114.481 16.8438C114.074 16.6354 113.754 16.3203 113.52 15.8984C113.285 15.4766 113.168 14.9427 113.168 14.2969C113.168 13.349 113.496 12.6458 114.152 12.1875C114.809 11.7292 115.759 11.4714 117.004 11.4141L118.481 11.3672V11.2422C118.481 10.8464 118.382 10.5651 118.184 10.3984C117.991 10.2318 117.731 10.1484 117.402 10.1484C117.054 10.1484 116.663 10.2109 116.231 10.3359C115.804 10.4557 115.374 10.612 114.942 10.8047L114.059 8.78906C114.569 8.52865 115.147 8.33073 115.793 8.19531C116.439 8.0599 117.163 7.99219 117.965 7.99219ZM118.496 13.0469L117.793 13.0781C117.231 13.099 116.835 13.1979 116.606 13.375C116.382 13.5469 116.27 13.7943 116.27 14.1172C116.27 14.4193 116.35 14.6432 116.512 14.7891C116.673 14.9297 116.887 15 117.152 15C117.522 15 117.837 14.8828 118.098 14.6484C118.363 14.4141 118.496 14.1094 118.496 13.7344V13.0469ZM128.717 7.99219C128.884 7.99219 129.058 8.00521 129.241 8.03125C129.423 8.05208 129.558 8.07031 129.647 8.08594L129.373 10.9688C129.274 10.9427 129.147 10.9219 128.991 10.9062C128.834 10.8854 128.616 10.875 128.334 10.875C128.142 10.875 127.936 10.8932 127.717 10.9297C127.498 10.9661 127.29 11.0443 127.092 11.1641C126.899 11.2786 126.741 11.4557 126.616 11.6953C126.491 11.9297 126.428 12.2474 126.428 12.6484V17H123.373V8.14844H125.647L126.123 9.5625H126.272C126.433 9.27083 126.639 9.00781 126.889 8.77344C127.144 8.53385 127.428 8.34375 127.741 8.20312C128.058 8.0625 128.384 7.99219 128.717 7.99219ZM133.399 17.1562C132.488 17.1562 131.738 16.7682 131.149 15.9922C130.561 15.2161 130.266 14.0807 130.266 12.5859C130.266 11.0755 130.568 9.93229 131.173 9.15625C131.777 8.38021 132.558 7.99219 133.516 7.99219C133.912 7.99219 134.253 8.04948 134.54 8.16406C134.826 8.27865 135.074 8.4349 135.282 8.63281C135.495 8.82552 135.68 9.04427 135.837 9.28906H135.899C135.863 9.0651 135.829 8.75781 135.798 8.36719C135.766 7.97135 135.751 7.58594 135.751 7.21094V4.84375H138.829V17H136.524L135.868 15.8828H135.751C135.61 16.1172 135.433 16.3307 135.219 16.5234C135.011 16.7161 134.756 16.8698 134.454 16.9844C134.157 17.099 133.805 17.1562 133.399 17.1562ZM134.649 14.7422C135.139 14.7422 135.482 14.5885 135.68 14.2812C135.883 13.9688 135.993 13.4948 136.008 12.8594V12.6172C136.008 11.9193 135.909 11.3854 135.712 11.0156C135.519 10.6406 135.154 10.4531 134.618 10.4531C134.253 10.4531 133.951 10.6302 133.712 10.9844C133.472 11.3385 133.352 11.888 133.352 12.6328C133.352 13.3672 133.472 13.9036 133.712 14.2422C133.956 14.5755 134.269 14.7422 134.649 14.7422ZM147.284 14.2812C147.284 14.8438 147.159 15.3411 146.909 15.7734C146.659 16.2057 146.258 16.5443 145.706 16.7891C145.159 17.0339 144.438 17.1562 143.542 17.1562C142.912 17.1562 142.347 17.1224 141.847 17.0547C141.352 16.987 140.849 16.8568 140.339 16.6641V14.2188C140.896 14.474 141.464 14.6589 142.042 14.7734C142.62 14.8828 143.076 14.9375 143.409 14.9375C143.753 14.9375 144.003 14.901 144.159 14.8281C144.321 14.75 144.401 14.6354 144.401 14.4844C144.401 14.3542 144.347 14.2448 144.237 14.1562C144.133 14.0625 143.943 13.9557 143.667 13.8359C143.396 13.7161 143.013 13.5547 142.518 13.3516C142.029 13.1484 141.62 12.9271 141.292 12.6875C140.969 12.4479 140.727 12.1615 140.565 11.8281C140.404 11.4948 140.323 11.0859 140.323 10.6016C140.323 9.73698 140.656 9.08594 141.323 8.64844C141.99 8.21094 142.873 7.99219 143.972 7.99219C144.555 7.99219 145.104 8.05729 145.62 8.1875C146.136 8.3125 146.669 8.4974 147.222 8.74219L146.386 10.7109C145.948 10.513 145.505 10.3542 145.058 10.2344C144.61 10.1146 144.253 10.0547 143.987 10.0547C143.748 10.0547 143.563 10.0859 143.433 10.1484C143.302 10.2109 143.237 10.3021 143.237 10.4219C143.237 10.5312 143.281 10.6276 143.37 10.7109C143.464 10.7943 143.638 10.8906 143.893 11C144.149 11.1094 144.521 11.263 145.011 11.4609C145.526 11.6693 145.951 11.8932 146.284 12.1328C146.623 12.3672 146.873 12.6536 147.034 12.9922C147.201 13.3307 147.284 13.7604 147.284 14.2812Z" fill="#41AFFF"/>
</svg>
